<svg id="Capa_1" enable-background="new 0 0 512 512" height="512" viewBox="0 0 512 512" width="512" xmlns="http://www.w3.org/2000/svg"><g><path d="m512 256-32.32-8-10.418 2.631-21.903-10.951-107.199-26.561 32.959-74.24-74.238 32.961-26.561-107.201-10.951-21.901 2.631-10.418-8-32.32-8 32.32 2.631 10.418-10.951 21.901-26.561 107.201-74.238-32.961 32.959 74.24-107.199 26.561-21.903 10.951-10.418-2.631-32.32 8 32.32 8 10.418-2.631 21.903 10.951 107.199 26.559-32.959 74.24 74.238-32.959 26.561 107.199 10.951 21.903-2.631 10.418 8 32.32 8-32.32-2.631-10.418 10.951-21.903 26.561-107.199 74.238 32.959-32.959-74.24 107.199-26.559 21.903-10.951 10.418 2.631z" fill="#ff4db3"/><path d="m447.359 272.32c-8 92.799-82.24 167.039-175.039 175.039l-10.951 21.902 2.631 10.419c117.119-4.16 211.52-98.561 215.68-215.68l-10.418-2.631zm-382.718 0-21.902-10.951-10.419 2.631c4.16 117.119 98.561 211.52 215.68 215.68l2.631-10.418-10.951-21.902c-92.799-8.001-167.039-82.241-175.039-175.04zm199.359-240-2.631 10.418 10.951 21.9c92.799 8 167.039 82.24 175.039 175.041l21.902 10.951 10.419-2.63c-4.16-117.121-98.561-211.52-215.68-215.68zm-231.68 215.68 10.418 2.631 21.902-10.951c8-92.801 82.24-167.041 175.039-175.041l10.951-21.9-2.63-10.419c-117.119 4.16-211.52 98.559-215.68 215.68z" fill="#ff8de4"/><g fill="#ff0068"><path d="m272.32 447.359-8.32 32.321c-2.561.32-5.439.32-8 .32s-5.439 0-8-.32l-8.32-32.32c5.121.32 10.881.64 16.32.64s11.199-.32 16.32-.641z"/><path d="m480 256c0 2.559 0 5.439-.32 8l-32.32 8.32c.32-5.121.64-10.881.64-16.32 0-5.441-.32-11.201-.641-16.32l32.32 8.32c.321 2.559.321 5.439.321 8z"/><path d="m272.32 64.639c-5.121-.319-10.881-.639-16.32-.639s-11.199.32-16.32.639l8.32-32.319c2.561-.32 5.439-.32 8-.32s5.439 0 8 .32z"/><path d="m64 256c0 5.439.32 11.199.641 16.32l-32.321-8.32c-.32-2.561-.32-5.441-.32-8 0-2.561 0-5.441.32-8l32.32-8.32c-.32 5.119-.64 10.879-.64 16.32z"/></g><circle cx="256" cy="256" fill="#ff8de4" r="32"/></g></svg>